<?xml version="1.0" encoding="UTF-8"?>
<svg version="1.1" xmlns="http://www.w3.org/2000/svg" width="361" height="107">
<path d="M0 0 C119.13 0 238.26 0 361 0 C361 35.31 361 70.62 361 107 C241.87 107 122.74 107 0 107 C0 71.69 0 36.38 0 0 Z " fill="#FEFEFE" transform="translate(0,0)"/>
<path d="M0 0 C0.66 0.33 1.32 0.66 2 1 C2 7.93 2 14.86 2 22 C0.47375 22.515625 -1.0525 23.03125 -2.625 23.5625 C-7.90538157 25.64015014 -10.80927001 28.38252083 -14 33 C-13.34 33 -12.68 33 -12 33 C-11.01 33 -10.02 33 -9 33 C-9 34.32 -9 35.64 -9 37 C-9.99 37 -10.98 37 -12 37 C-12 37.66 -12 38.32 -12 39 C-11.34 39 -10.68 39 -10 39 C-10.33 40.65 -10.66 42.3 -11 44 C-6.73422431 46.9540719 -6.73422431 46.9540719 -2 49 C-2 46.03 -2 43.06 -2 40 C-4.97 40.495 -4.97 40.495 -8 41 C-4.25 38 -4.25 38 -2 38 C-2 36.02 -2 34.04 -2 32 C-1.34 31.67 -0.68 31.34 0 31 C0 32.98 0 34.96 0 37 C0.99 37.495 0.99 37.495 2 38 C2 38.66 2 39.32 2 40 C1.34 40 0.68 40 0 40 C0 42.31 0 44.62 0 47 C2.52985528 46.67613187 2.52985528 46.67613187 5 45 C6.07001562 42.05880129 6.57343918 39.09415757 7 36 C8.65 36 10.3 36 12 36 C12.495 38.97 12.495 38.97 13 42 C16.3 42 19.6 42 23 42 C22.53696077 49.64014735 21.31699712 54.00661236 15.4375 59.3125 C11.49664082 62.04078713 8.3168607 62.18558086 3.625 62.25 C2.50351562 62.27578125 1.38203125 62.3015625 0.2265625 62.328125 C-3.31585696 61.96787895 -5.1962621 61.16318355 -8 59 C-8 58.34 -8 57.68 -8 57 C-9.485 56.505 -9.485 56.505 -11 56 C-12.0625 53.6875 -12.0625 53.6875 -13 51 C-13.350625 50.360625 -13.70125 49.72125 -14.0625 49.0625 C-15.26138896 46.42494429 -15.61027831 43.85795906 -16 41 C-16.47894094 47.58543794 -15.42109424 52.30567867 -12 58 C-8.09506518 62.23964352 -3.39496368 63.38956308 2 65 C2 70.28 2 75.56 2 81 C-1.20116225 82.60058112 -4.52566927 82.49825673 -8 82 C-10.5625 80.1875 -10.5625 80.1875 -13 78 C-14.175625 77.505 -15.35125 77.01 -16.5625 76.5 C-20.5436018 74.76279194 -23.10690316 73.04136421 -24.875 69 C-25.94005471 66.72032019 -25.94005471 66.72032019 -28.8125 65.3125 C-33.57093828 61.86029968 -36.31591076 57.50967521 -37.44921875 51.6953125 C-37.73328614 46.03355563 -36.00885126 41.73682608 -33 37 C-32.505 36.505 -32.505 36.505 -32 36 C-31.8932691 34.14703292 -31.81500274 32.29239976 -31.75 30.4375 C-31.27713325 24.49490595 -30.13415728 20.37674842 -26 16 C-22.47903214 13.19283459 -19.58219594 11 -15 11 C-14.95875 10.113125 -14.9175 9.22625 -14.875 8.3125 C-13.93665293 4.76018609 -12.7584152 3.12288267 -9.82421875 0.90625 C-6.48611059 -0.75208211 -3.66662051 -0.36666205 0 0 Z " fill="#B2E193" transform="translate(50,13)"/>
<path d="M0 0 C3.375 1.5625 3.375 1.5625 6 4 C6.875 7.75 6.875 7.75 7 11 C7.721875 11.103125 8.44375 11.20625 9.1875 11.3125 C15.49556777 12.85447212 19.30818165 16.85949343 23 22 C23.98341205 24.95023614 24.16178164 27.16673295 24.3125 30.25 C24.601421 33.93374272 24.93586886 36.40480418 27.0625 39.4375 C30.18715099 44.15868799 29.59903936 49.57073187 29 55 C27.39249457 60.32486172 24.01014834 62.90321392 19.8515625 66.3359375 C17.66440383 68.30161175 16.49436908 70.48674291 15 73 C12.125 75.125 12.125 75.125 9 77 C8.113125 77.53625 7.22625 78.0725 6.3125 78.625 C5.1678125 79.305625 5.1678125 79.305625 4 80 C2.515 80.99 2.515 80.99 1 82 C-1.2265625 82.23046875 -1.2265625 82.23046875 -3.625 82.1875 C-4.42164063 82.18105469 -5.21828125 82.17460938 -6.0390625 82.16796875 C-8 82 -8 82 -9 81 C-9.07319621 78.30345146 -9.09242537 75.63308542 -9.0625 72.9375 C-9.05798828 72.17888672 -9.05347656 71.42027344 -9.04882812 70.63867188 C-9.0370068 68.75908129 -9.01907078 66.87953101 -9 65 C-8.43152344 64.87625 -7.86304688 64.7525 -7.27734375 64.625 C-0.59417791 62.83984719 3.18980747 59.76278428 7 54 C9.80785164 48.16830814 10.01416686 41.97498958 8.41796875 35.71875 C5.95472374 29.86994907 1.48105336 26.90227783 -4 24 C-6.475 23.01 -6.475 23.01 -9 22 C-9 15.07 -9 8.14 -9 1 C-5.89046621 -0.5547669 -3.43733239 -0.28644437 0 0 Z " fill="#B1E192" transform="translate(66,13)"/>
<path d="M0 0 C7.76503759 -0.91353383 7.76503759 -0.91353383 10.7109375 1.265625 C14 5.18208092 14 5.18208092 14 8 C14.99 8 15.98 8 17 8 C17.268125 7.4225 17.53625 6.845 17.8125 6.25 C19.06284552 3.88092428 20.18705762 1.98032809 22 0 C24.22099304 -0.48101807 24.22099304 -0.48101807 26.83862305 -0.45410156 C28.30980843 -0.45364838 28.30980843 -0.45364838 29.81071472 -0.45318604 C31.39521172 -0.42221832 31.39521172 -0.42221832 33.01171875 -0.390625 C34.63676079 -0.38213531 34.63676079 -0.38213531 36.29463196 -0.37347412 C39.7593683 -0.35105966 43.22307553 -0.30085218 46.6875 -0.25 C49.03449029 -0.22994164 51.38149676 -0.21168972 53.72851562 -0.1953125 C59.486029 -0.15117831 65.24294099 -0.08421541 71 0 C71 1.98 71 3.96 71 6 C66.05 6 61.1 6 56 6 C56 6.99 56 7.98 56 9 C59.96 9 63.92 9 68 9 C68 11.31 68 13.62 68 16 C64.37 16 60.74 16 57 16 C57 17.32 57 18.64 57 20 C61.62 20 66.24 20 71 20 C71 22.31 71 24.62 71 27 C67.35418313 27.02887512 63.70839537 27.04675585 60.0625 27.0625 C58.50112305 27.07506836 58.50112305 27.07506836 56.90820312 27.08789062 C55.42416992 27.09272461 55.42416992 27.09272461 53.91015625 27.09765625 C52.53549194 27.10551147 52.53549194 27.10551147 51.13305664 27.11352539 C49 27 49 27 48 26 C47.91330568 24.5112814 47.89296506 23.018555 47.90234375 21.52734375 C47.90556641 20.62822266 47.90878906 19.72910156 47.91210938 18.80273438 C47.92467773 17.38444336 47.92467773 17.38444336 47.9375 15.9375 C47.94201172 14.98810547 47.94652344 14.03871094 47.95117188 13.06054688 C47.9629989 10.70696935 47.97947975 8.35351523 48 6 C46.35 6 44.7 6 43 6 C43 12.93 43 19.86 43 27 C40.36 27 37.72 27 35 27 C35 20.07 35 13.14 35 6 C27.61340047 6.26090512 27.61340047 6.26090512 24.72265625 8.6796875 C20.18593001 14.67884079 18.90177785 19.49302154 19 27 C16.69 27 14.38 27 12 27 C12.08314453 26.05253906 12.08314453 26.05253906 12.16796875 25.0859375 C12.23287288 16.07724394 7.98030493 11.36480966 2.37109375 4.87109375 C0 2 0 2 0 0 Z " fill="#88BBDD" transform="translate(164,28)"/>
<path d="M0 0 C1 3 1 3 1 6 C1.66 6.33 2.32 6.66 3 7 C3 7.66 3 8.32 3 9 C2.34 9 1.68 9 1 9 C1 11.31 1 13.62 1 16 C3.52985528 15.67613187 3.52985528 15.67613187 6 14 C7.07001562 11.05880129 7.57343918 8.09415757 8 5 C9.65 5 11.3 5 13 5 C13.33 6.98 13.66 8.96 14 11 C17.3 11 20.6 11 24 11 C23.53696077 18.64014735 22.31699712 23.00661236 16.4375 28.3125 C12.49664082 31.04078713 9.3168607 31.18558086 4.625 31.25 C3.50351562 31.27578125 2.38203125 31.3015625 1.2265625 31.328125 C-2.31585696 30.96787895 -4.1962621 30.16318355 -7 28 C-7 27.34 -7 26.68 -7 26 C-7.99 25.67 -8.98 25.34 -10 25 C-11.0625 22.6875 -11.0625 22.6875 -12 20 C-12.350625 19.360625 -12.70125 18.72125 -13.0625 18.0625 C-14.26506093 15.41686596 -14.58180606 12.86761556 -15 10 C-15.2475 9.278125 -15.495 8.55625 -15.75 7.8125 C-16 6 -16 6 -14.8125 4.375 C-12.95302294 2.96436223 -11.12665622 1.95332865 -9 1 C-8.34 2.32 -7.68 3.64 -7 5 C-8.32 5.33 -9.64 5.66 -11 6 C-11 6.66 -11 7.32 -11 8 C-10.34 8 -9.68 8 -9 8 C-9.33 9.65 -9.66 11.3 -10 13 C-5.73422431 15.9540719 -5.73422431 15.9540719 -1 18 C-1 15.03 -1 12.06 -1 9 C-2.98 9.33 -4.96 9.66 -7 10 C-3.25 7 -3.25 7 -1 7 C-1.020625 6.030625 -1.04125 5.06125 -1.0625 4.0625 C-1 1 -1 1 0 0 Z " fill="#DBEEF5" transform="translate(49,44)"/>
<path d="M0 0 C3.44281132 0.73522953 5.76918134 1.129216 9.25 0.4765625 C12.125 0.0625 12.125 0.0625 14.3203125 0.99609375 C19.04495767 4.67825649 22.55890727 8.14949604 24.125 14.0625 C24.41793292 17.75833697 24.36965608 21.36547482 24.125 25.0625 C22.625 23.8125 22.625 23.8125 21.125 22.0625 C21.125 20.7425 21.125 19.4225 21.125 18.0625 C20.05958984 18.18818359 20.05958984 18.18818359 18.97265625 18.31640625 C18.05355469 18.41824219 17.13445312 18.52007812 16.1875 18.625 C15.27097656 18.72941406 14.35445312 18.83382812 13.41015625 18.94140625 C12.27900391 19.00134766 12.27900391 19.00134766 11.125 19.0625 C10.125 18.0625 10.125 18.0625 10.0625 15 C10.083125 14.030625 10.10375 13.06125 10.125 12.0625 C9.465 12.0625 8.805 12.0625 8.125 12.0625 C8.125 14.0425 8.125 16.0225 8.125 18.0625 C7.795 18.0625 7.465 18.0625 7.125 18.0625 C7.125 16.0825 7.125 14.1025 7.125 12.0625 C6.465 12.0625 5.805 12.0625 5.125 12.0625 C5.16625 13.155625 5.2075 14.24875 5.25 15.375 C5.125 19.0625 5.125 19.0625 3.125 22.0625 C0.5 22.75 0.5 22.75 -1.875 23.0625 C-2.205 20.4225 -2.535 17.7825 -2.875 15.0625 C-1.885 15.3925 -0.895 15.7225 0.125 16.0625 C0.125 15.4025 0.125 14.7425 0.125 14.0625 C-0.865 13.7325 -1.855 13.4025 -2.875 13.0625 C-2.875 11.4125 -2.875 9.7625 -2.875 8.0625 C-3.0296875 9.485625 -3.0296875 9.485625 -3.1875 10.9375 C-3.875 14.0625 -3.875 14.0625 -6.875 16.0625 C-5.885 16.0625 -4.895 16.0625 -3.875 16.0625 C-3.875 19.0325 -3.875 22.0025 -3.875 25.0625 C-5.525 25.3925 -7.175 25.7225 -8.875 26.0625 C-8.875 25.0725 -8.875 24.0825 -8.875 23.0625 C-11.31996043 21.34538757 -11.31996043 21.34538757 -13.875 20.0625 C-13.215 18.4125 -12.555 16.7625 -11.875 15.0625 C-12.535 15.0625 -13.195 15.0625 -13.875 15.0625 C-13.875 14.4025 -13.875 13.7425 -13.875 13.0625 C-12.885 12.7325 -11.895 12.4025 -10.875 12.0625 C-11.205 11.0725 -11.535 10.0825 -11.875 9.0625 C-13.855 10.0525 -13.855 10.0525 -15.875 11.0625 C-16.205 10.4025 -16.535 9.7425 -16.875 9.0625 C-15.79992371 7.76395279 -14.71456264 6.47391639 -13.625 5.1875 C-13.02171875 4.46820313 -12.4184375 3.74890625 -11.796875 3.0078125 C-7.83132944 -1.00609337 -5.45647585 -1.17321173 0 0 Z " fill="#F6F9F9" transform="translate(51.875,36.9375)"/>
<path d="M0 0 C2.64 0 5.28 0 8 0 C8 3.3 8 6.6 8 10 C11.63 10 15.26 10 19 10 C19 7.03 19 4.06 19 1 C21.64 1 24.28 1 27 1 C27.02886537 5.31248609 27.04675255 9.62494762 27.0625 13.9375 C27.07087891 15.16919922 27.07925781 16.40089844 27.08789062 17.66992188 C27.09272461 19.4246582 27.09272461 19.4246582 27.09765625 21.21484375 C27.10551147 22.84087524 27.10551147 22.84087524 27.11352539 24.49975586 C27 27 27 27 26 28 C23.66702567 28.04092937 21.33294775 28.04241723 19 28 C19 24.37 19 20.74 19 17 C15.37 17 11.74 17 8 17 C8 20.63 8 24.26 8 28 C5.36 28 2.72 28 0 28 C0 18.76 0 9.52 0 0 Z " fill="#89BCDD" transform="translate(262,27)"/>
<path d="M0 0 C2.866875 -0.061875 5.73375 -0.12375 8.6875 -0.1875 C10.02880981 -0.22846802 10.02880981 -0.22846802 11.3972168 -0.27026367 C16.08604008 -0.31916583 19.21011422 -0.08722451 23 3 C24.75686944 6.51373887 24.65958838 10.17438737 24 14 C21.1383552 17.78974582 21.1383552 17.78974582 18 19 C14.29165377 19.386604 10.71219074 19.29723947 7 19 C7 21.64 7 24.28 7 27 C4.69 27 2.38 27 0 27 C0 18.09 0 9.18 0 0 Z " fill="#82B8DB" transform="translate(116,28)"/>
<path d="M0 0 C4.26184172 1.72287219 5.92263216 3.95459947 8 8 C7 9 7 9 3.5 9.125 C0 9 0 9 -1 8 C-2.34747084 7.76924918 -3.70377565 7.58846937 -5.0625 7.4375 C-6.361875 7.293125 -7.66125 7.14875 -9 7 C-8.67 7.99 -8.34 8.98 -8 10 C-7.26394531 10.09796875 -6.52789062 10.1959375 -5.76953125 10.296875 C4.69792364 11.90087073 4.69792364 11.90087073 8 16 C8.625 18.9375 8.625 18.9375 8 22 C4.83304696 25.85169965 2.52789742 27.72220907 -2.48828125 28.2734375 C-11.05683215 28.58157349 -11.05683215 28.58157349 -14.6875 25.75 C-17 23 -17 23 -17 19 C-14.66705225 18.95758277 -12.33297433 18.95907063 -10 19 C-9.67 19.33 -9.34 19.66 -9 20 C-7.48530552 20.23192865 -5.96245438 20.41215238 -4.4375 20.5625 C-3.61121094 20.64628906 -2.78492188 20.73007812 -1.93359375 20.81640625 C-0.97646484 20.90728516 -0.97646484 20.90728516 0 21 C-0.33 20.01 -0.66 19.02 -1 18 C-1.59167969 17.96261719 -2.18335938 17.92523438 -2.79296875 17.88671875 C-7.56797099 17.48945103 -11.1045504 17.04332 -15 14 C-16.54586876 10.90826248 -16.29359521 8.40570448 -16 5 C-11.51505865 -0.68092571 -6.82793258 -0.59232854 0 0 Z " fill="#85BADC" transform="translate(158,27)"/>
<path d="M0 0 C0.99 0.66 1.98 1.32 3 2 C3.1875 5.625 3.1875 5.625 3 9 C2.4534375 8.84144531 1.906875 8.68289062 1.34375 8.51953125 C-4.00191606 7.33457527 -9.91290924 6.81415298 -14.75 9.5625 C-16.50708726 12.98882015 -15.8469611 15.32983522 -15 19 C-11.93042902 20.02319033 -9.77559677 20.13371939 -6.5625 20.125 C-5.61503906 20.12757812 -4.66757813 20.13015625 -3.69140625 20.1328125 C-1.29859541 20.01473475 0.71336153 19.68112635 3 19 C3.1875 22.375 3.1875 22.375 3 26 C-1.91006444 29.27337629 -7.26794816 28.65644513 -13 28 C-17.57488216 26.35247675 -20.23914156 24.09373401 -23 20.125 C-24.62010315 15.06217765 -24.8033872 11.63890988 -22.4375 6.8125 C-16.05391757 -0.55317203 -9.41719812 -1.09443113 0 0 Z " fill="#85BADC" transform="translate(258,27)"/>
<path d="M0 0 C1 3 1 3 1 6 C1.66 6.33 2.32 6.66 3 7 C3 7.66 3 8.32 3 9 C2.34 9 1.68 9 1 9 C1 11.31 1 13.62 1 16 C3.52985528 15.67613187 3.52985528 15.67613187 6 14 C7.07001562 11.05880129 7.57343918 8.09415757 8 5 C9.65 5 11.3 5 13 5 C13.33 6.98 13.66 8.96 14 11 C17.3 11 20.6 11 24 11 C23.67 13.97 23.34 16.94 23 20 C22.195625 19.505 21.39125 19.01 20.5625 18.5 C16.16331246 16.64771051 12.70906267 16.2365854 8 17 C5.93150817 17.91536708 4.02437965 18.98604068 2.0625 20.109375 C-1.52655532 21.65919434 -5.16879698 21.31926692 -9 21 C-6.25002779 19.5268006 -4.10380501 18.77595125 -1 18 C-1 15.03 -1 12.06 -1 9 C-2.98 9.33 -4.96 9.66 -7 10 C-3.25 7 -3.25 7 -1 7 C-1.020625 6.030625 -1.04125 5.06125 -1.0625 4.0625 C-1 1 -1 1 0 0 Z " fill="#87BADD" transform="translate(49,44)"/>
<path d="M0 0 C3.99927583 3.89673029 6.21604602 7.70700676 6.68359375 13.33984375 C6.68705705 16.03083067 6.61516097 18.69034534 6.4375 21.375 C4.9375 20.125 4.9375 20.125 3.4375 18.375 C3.4375 17.055 3.4375 15.735 3.4375 14.375 C2.1175 14.375 0.7975 14.375 -0.5625 14.375 C-0.5625 13.385 -0.5625 12.395 -0.5625 11.375 C-1.2225 11.045 -1.8825 10.715 -2.5625 10.375 C-2.5625 8.725 -2.5625 7.075 -2.5625 5.375 C-3.3978125 5.2203125 -3.3978125 5.2203125 -4.25 5.0625 C-7.09223129 4.21751232 -9.18778679 3.1560349 -11.5625 1.375 C-11.5625 0.055 -11.5625 -1.265 -11.5625 -2.625 C-6.86985114 -4.3630181 -4.02506398 -2.55247959 0 0 Z " fill="#F5F5DB" transform="translate(69.5625,40.625)"/>
<path d="M0 0 C3.4375 0.1875 3.4375 0.1875 4.4375 1.1875 C4.640625 3.3671875 4.640625 3.3671875 4.6875 6.0625 C4.72617188 7.38894531 4.72617188 7.38894531 4.765625 8.7421875 C4.4375 11.1875 4.4375 11.1875 3.12109375 12.99609375 C0.61243604 14.77136197 -1.57935119 14.38637659 -4.5625 14.1875 C-4.8925 13.1975 -5.2225 12.2075 -5.5625 11.1875 C-3.2525 11.1875 -0.9425 11.1875 1.4375 11.1875 C0.468125 10.878125 -0.50125 10.56875 -1.5 10.25 C-4.5625 9.1875 -4.5625 9.1875 -5.5625 8.1875 C-5.75 5.25 -5.75 5.25 -5.5625 2.1875 C-3.5625 0.1875 -3.5625 0.1875 0 0 Z " fill="#BAE49E" transform="translate(236.5625,67.8125)"/>
<path d="M0 0 C0.33 0 0.66 0 1 0 C1.1875 3.375 1.1875 3.375 1 7 C0.01 7.66 -0.98 8.32 -2 9 C-1.01 9 -0.02 9 1 9 C1 11.97 1 14.94 1 18 C-0.65 18.33 -2.3 18.66 -4 19 C-4 18.01 -4 17.02 -4 16 C-6.44496043 14.28288757 -6.44496043 14.28288757 -9 13 C-8.34 11.35 -7.68 9.7 -7 8 C-7.66 8 -8.32 8 -9 8 C-9 7.34 -9 6.68 -9 6 C-8.071875 5.566875 -7.14375 5.13375 -6.1875 4.6875 C-3.50448951 3.26708268 -1.98460951 2.19351577 0 0 Z " fill="#FAFCF8" transform="translate(47,44)"/>
<path d="M0 0 C0.99 0 1.98 0 3 0 C3 4.62 3 9.24 3 14 C1.72125 14.061875 0.4425 14.12375 -0.875 14.1875 C-1.59429687 14.22230469 -2.31359375 14.25710937 -3.0546875 14.29296875 C-3.69664062 14.19628906 -4.33859375 14.09960938 -5 14 C-7 11 -7 11 -6.75 8.4375 C-6 6 -6 6 -4 4 C-2.68 4 -1.36 4 0 4 C0 2.68 0 1.36 0 0 Z " fill="#BCE4A1" transform="translate(286,64)"/>
<path d="M0 0 C0.99 0.66 1.98 1.32 3 2 C2.67 2.99 2.34 3.98 2 5 C1.01 5 0.02 5 -1 5 C-1 5.66 -1 6.32 -1 7 C-0.34 7 0.32 7 1 7 C0.67 8.65 0.34 10.3 0 12 C1.98 13.32 3.96 14.64 6 16 C4 18 4 18 0.375 18.125 C-0.73875 18.08375 -1.8525 18.0425 -3 18 C-3.13277344 17.39671875 -3.26554687 16.7934375 -3.40234375 16.171875 C-3.57894531 15.37265625 -3.75554688 14.5734375 -3.9375 13.75 C-4.11152344 12.96109375 -4.28554688 12.1721875 -4.46484375 11.359375 C-4.81176134 9.82989889 -5.20272712 8.30949915 -5.64453125 6.8046875 C-5.76183594 6.20914063 -5.87914062 5.61359375 -6 5 C-4.26165827 2.74015575 -2.40298607 1.60199072 0 0 Z " fill="#F3F1CA" transform="translate(39,45)"/>
<path d="M0 0 C-1.22054694 2.69746447 -1.89423388 3.91996078 -4.3125 5.75 C-9.75501899 7.59492169 -15.30706006 7.77527353 -21 7 C-22.89453125 5.4765625 -22.89453125 5.4765625 -24 4 C-23.41992188 3.96261719 -22.83984375 3.92523438 -22.2421875 3.88671875 C-18.35517598 3.55959402 -15.50199664 3.26145659 -12 1.4375 C-7.94127501 -0.50730573 -4.42224326 -0.2653346 0 0 Z " fill="#B6E299" transform="translate(68,68)"/>
<path d="M0 0 C6.57692308 0.57692308 6.57692308 0.57692308 8 2 C8.29573841 4.80951486 8.38243085 6.41628976 6.8125 8.8125 C4.3864306 10.40199375 2.84602594 10.36487512 0 10 C-2 8 -2 8 -2.25 5 C-2 2 -2 2 0 0 Z " fill="#BDE5A2" transform="translate(132,68)"/>
<path d="M0 0 C6.625 -0.25 6.625 -0.25 10 2 C9.125 6.875 9.125 6.875 8 8 C5.32941149 8.14115161 2.67567762 8.04247107 0 8 C0 5.36 0 2.72 0 0 Z " fill="#F1F7FB" transform="translate(123,33)"/>
<path d="M0 0 C0 0.66 0 1.32 0 2 C-1.98 2.33 -3.96 2.66 -6 3 C-6 4.98 -6 6.96 -6 9 C-3.69 9.33 -1.38 9.66 1 10 C1 10.99 1 11.98 1 13 C-5.27586207 13.48275862 -5.27586207 13.48275862 -8.4375 11.375 C-10.44814771 8.31881548 -10.53520313 6.59350675 -10 3 C-7.7109263 -1.03954182 -4.21983723 -0.23885871 0 0 Z " fill="#C2E7A9" transform="translate(125,65)"/>
<path d="M0 0 C6.0546875 -0.1953125 6.0546875 -0.1953125 8 0 C10 2 10 2 10.1953125 3.9453125 C10.13020833 5.96354167 10.06510417 7.98177083 10 10 C9.01 10 8.02 10 7 10 C7 7.36 7 4.72 7 2 C6.01 2.33 5.02 2.66 4 3 C3.67 5.31 3.34 7.62 3 10 C2.01 10 1.02 10 0 10 C0 6.7 0 3.4 0 0 Z " fill="#BEE5A4" transform="translate(216,68)"/>
<path d="M0 0 C6.15234375 -0.09765625 6.15234375 -0.09765625 8 0 C9 1 9 1 9.09765625 2.84765625 C9.04882812 5.92382812 9.04882812 5.92382812 9 9 C8.34 9 7.68 9 7 9 C7 6.69 7 4.38 7 2 C5.68 2 4.36 2 3 2 C3 4.64 3 7.28 3 10 C2.01 10 1.02 10 0 10 C0 6.7 0 3.4 0 0 Z " fill="#BBE49F" transform="translate(145,68)"/>
<path d="M0 0 C0.99 0 1.98 0 3 0 C3 2.64 3 5.28 3 8 C3.99 7.67 4.98 7.34 6 7 C6.33 4.69 6.66 2.38 7 0 C7.66 0 8.32 0 9 0 C9 2.97 9 5.94 9 9 C5.625 9.625 5.625 9.625 2 10 C0 8 0 8 -0.1953125 6.0546875 C-0.13020833 4.03645833 -0.06510417 2.01822917 0 0 Z " fill="#BDE5A2" transform="translate(173,68)"/>
<path d="M0 0 C3.63 0.66 7.26 1.32 11 2 C10.67 3.32 10.34 4.64 10 6 C6.6875 7.125 6.6875 7.125 3 8 C2.01 7.34 1.02 6.68 0 6 C-0.1875 2.875 -0.1875 2.875 0 0 Z " fill="#F4ECB3" transform="translate(46,36)"/>
<path d="M0 0 C1.98 0 3.96 0 6 0 C6 0.66 6 1.32 6 2 C4.68 2 3.36 2 2 2 C2 2.66 2 3.32 2 4 C3.65 4.33 5.3 4.66 7 5 C6.125 8.875 6.125 8.875 5 10 C3.00041636 10.04080783 0.99954746 10.04254356 -1 10 C-1 9.34 -1 8.68 -1 8 C0.65 8 2.3 8 4 8 C4 7.34 4 6.68 4 6 C2.35 5.67 0.7 5.34 -1 5 C-0.67 3.35 -0.34 1.7 0 0 Z " fill="#BCE5A1" transform="translate(161,68)"/>
<path d="M0 0 C0.66 0 1.32 0 2 0 C2 0.99 2 1.98 2 3 C2.99 3 3.98 3 5 3 C5 3.66 5 4.32 5 5 C4.01 5 3.02 5 2 5 C2 6.98 2 8.96 2 11 C2.99 11 3.98 11 5 11 C5 11.66 5 12.32 5 13 C3.35 12.67 1.7 12.34 0 12 C-2 5.25 -2 5.25 -2 3 C-1.34 3 -0.68 3 0 3 C0 2.01 0 1.02 0 0 Z " fill="#BAE39D" transform="translate(270,65)"/>
<path d="M0 0 C0.66 0 1.32 0 2 0 C2 0.99 2 1.98 2 3 C2.99 3 3.98 3 5 3 C5 3.66 5 4.32 5 5 C4.01 5 3.02 5 2 5 C2 6.98 2 8.96 2 11 C2.99 11 3.98 11 5 11 C5 11.66 5 12.32 5 13 C3.35 12.67 1.7 12.34 0 12 C-2 5.25 -2 5.25 -2 3 C-1.34 3 -0.68 3 0 3 C0 2.01 0 1.02 0 0 Z " fill="#BAE39E" transform="translate(198,65)"/>
<path d="M0 0 C2.33333333 0 4.66666667 0 7 0 C7.125 5.75 7.125 5.75 6 8 C1.125 7.125 1.125 7.125 0 6 C-0.04080783 4.00041636 -0.04254356 1.99954746 0 0 Z " fill="#C4E7AC" transform="translate(231,70)"/>
<path d="M0 0 C0 0.66 0 1.32 0 2 C-4.62 3.32 -9.24 4.64 -14 6 C-14.33 5.01 -14.66 4.02 -15 3 C-9.8531808 -0.16727335 -5.841744 -0.35050464 0 0 Z " fill="#B4E296" transform="translate(68,68)"/>
<path d="M0 0 C0.99 0 1.98 0 3 0 C3 4.62 3 9.24 3 14 C2.01 14 1.02 14 0 14 C0 9.38 0 4.76 0 0 Z " fill="#BEE6A4" transform="translate(188,64)"/>
<path d="M0 0 C0.66 0 1.32 0 2 0 C2 3.63 2 7.26 2 11 C4.31 11 6.62 11 9 11 C9 11.66 9 12.32 9 13 C6.03 13 3.06 13 0 13 C0 8.71 0 4.42 0 0 Z " fill="#B6E298" transform="translate(255,65)"/>
<path d="M0 0 C0 1.98 0 3.96 0 6 C-1.98 6 -3.96 6 -6 6 C-6 4.35 -6 2.7 -6 1 C-6.66 0.67 -7.32 0.34 -8 0 C-5.13822943 -1.43088528 -3.06624227 -0.59991697 0 0 Z " fill="#C7E6F7" transform="translate(63,61)"/>
<path d="M0 0 C1 3 1 3 1 6 C1.66 6.33 2.32 6.66 3 7 C3 7.66 3 8.32 3 9 C2.34 9 1.68 9 1 9 C1.33 11.64 1.66 14.28 2 17 C1.01 17.33 0.02 17.66 -1 18 C-1 15.03 -1 12.06 -1 9 C-2.98 9.33 -4.96 9.66 -7 10 C-3.25 7 -3.25 7 -1 7 C-1.020625 6.030625 -1.04125 5.06125 -1.0625 4.0625 C-1 1 -1 1 0 0 Z " fill="#AACDE7" transform="translate(49,44)"/>
<path d="M0 0 C4.31392226 0.4793247 6.16569547 1.7457985 9 5 C6.04335481 6.4783226 3.25770263 6.06032783 0 6 C0 4.02 0 2.04 0 0 Z " fill="#B3E194" transform="translate(36,57)"/>
<path d="M0 0 C0 0.66 0 1.32 0 2 C-0.99 2 -1.98 2 -3 2 C-3.66 3.32 -4.32 4.64 -5 6 C-5.66 6 -6.32 6 -7 6 C-7.66 7.65 -8.32 9.3 -9 11 C-9.99 11 -10.98 11 -12 11 C-10.53404095 5.46193247 -5.96377539 0 0 0 Z " fill="#F9FCF5" transform="translate(47,37)"/>
<path d="M0 0 C0.33 0 0.66 0 1 0 C1.22162329 1.62324086 1.42689803 3.248721 1.625 4.875 C1.74101562 5.77992187 1.85703125 6.68484375 1.9765625 7.6171875 C1.98429688 8.40351562 1.99203125 9.18984375 2 10 C0 12 0 12 -3.125 12.125 C-4.548125 12.063125 -4.548125 12.063125 -6 12 C-6.33 11.01 -6.66 10.02 -7 9 C-4.69 9 -2.38 9 0 9 C-0.33 8.01 -0.66 7.02 -1 6 C-0.72428861 3.99124558 -0.39764263 1.98821313 0 0 Z " fill="#C3E7AB" transform="translate(238,70)"/>
<path d="M0 0 C0 0.66 0 1.32 0 2 C-1.98 2.33 -3.96 2.66 -6 3 C-6.66 4.98 -7.32 6.96 -8 9 C-8.66 9 -9.32 9 -10 9 C-10.35789474 3.63157895 -10.35789474 3.63157895 -8.9375 1.125 C-5.99772876 -0.58196395 -3.32129197 -0.18799766 0 0 Z " fill="#B6E299" transform="translate(125,65)"/>
<path d="M0 0 C1.2065625 0.0309375 1.2065625 0.0309375 2.4375 0.0625 C1.4475 0.7225 0.4575 1.3825 -0.5625 2.0625 C-0.5625 3.3825 -0.5625 4.7025 -0.5625 6.0625 C1.0875 6.3925 2.7375 6.7225 4.4375 7.0625 C4.1075 7.7225 3.7775 8.3825 3.4375 9.0625 C1.0625 9.1875 1.0625 9.1875 -1.5625 9.0625 C-3.5625 7.0625 -3.5625 7.0625 -3.75 4 C-3.50012994 0.08536902 -3.50012994 0.08536902 0 0 Z " fill="#B6E299" transform="translate(133.5625,68.9375)"/>
<path d="M0 0 C0.99 0 1.98 0 3 0 C3 3.3 3 6.6 3 10 C2.01 10 1.02 10 0 10 C0 6.7 0 3.4 0 0 Z " fill="#C1E6A8" transform="translate(208,68)"/>
<path d="M0 0 C1.98 0.495 1.98 0.495 4 1 C3.67 2.65 3.34 4.3 3 6 C1.68 5.67 0.36 5.34 -1 5 C-0.67 3.35 -0.34 1.7 0 0 Z " fill="#F3FAEF" transform="translate(133,70)"/>
<path d="M0 0 C0.66 0 1.32 0 2 0 C2 3.63 2 7.26 2 11 C1.67 11 1.34 11 1 11 C1 9.35 1 7.7 1 6 C-0.65 6 -2.3 6 -4 6 C-4 5.34 -4 4.68 -4 4 C-2.68 4 -1.36 4 0 4 C0 2.68 0 1.36 0 0 Z " fill="#B6E299" transform="translate(286,64)"/>
<path d="M0 0 C-2.58309518 2.12182819 -4.61840345 3.68297532 -8 4 C-9.35168212 3.37136842 -10.68808601 2.70788693 -12 2 C-10.56656 1.46809459 -9.12804633 0.94984742 -7.6875 0.4375 C-6.48673828 0.00244141 -6.48673828 0.00244141 -5.26171875 -0.44140625 C-3 -1 -3 -1 0 0 Z " fill="#C0E6A6" transform="translate(67,71)"/>
<path d="M0 0 C0.99 0 1.98 0 3 0 C3 1.98 3 3.96 3 6 C1.68 5.67 0.36 5.34 -1 5 C-0.67 3.35 -0.34 1.7 0 0 Z " fill="#F8FCF5" transform="translate(283,70)"/>
<path d="M0 0 C1.37478516 0.01740234 1.37478516 0.01740234 2.77734375 0.03515625 C3.69644531 0.04417969 4.61554688 0.05320312 5.5625 0.0625 C6.27277344 0.07410156 6.98304688 0.08570312 7.71484375 0.09765625 C7.71484375 0.42765625 7.71484375 0.75765625 7.71484375 1.09765625 C5.07484375 1.09765625 2.43484375 1.09765625 -0.28515625 1.09765625 C0.37484375 2.08765625 1.03484375 3.07765625 1.71484375 4.09765625 C1.38484375 5.08765625 1.05484375 6.07765625 0.71484375 7.09765625 C-0.60515625 5.11765625 -1.92515625 3.13765625 -3.28515625 1.09765625 C-2.28515625 0.09765625 -2.28515625 0.09765625 0 0 Z " fill="#CCE1F0" transform="translate(164.28515625,26.90234375)"/>
<path d="M0 0 C1.32 0 2.64 0 4 0 C4 1.65 4 3.3 4 5 C2.68 5 1.36 5 0 5 C0 3.35 0 1.7 0 0 Z " fill="#FAFDF8" transform="translate(234,70)"/>
<path d="M0 0 C0.66 0 1.32 0 2 0 C2 2.97 2 5.94 2 9 C1.01 9 0.02 9 -1 9 C-0.67 6.03 -0.34 3.06 0 0 Z " fill="#B1E091" transform="translate(180,68)"/>
<path d="M0 0 C2.31 0 4.62 0 7 0 C7.33 1.32 7.66 2.64 8 4 C7.34 4 6.68 4 6 4 C5.01 5.485 5.01 5.485 4 7 C4 5.02 4 3.04 4 1 C2.68 0.67 1.36 0.34 0 0 Z " fill="#E6F3FB" transform="translate(59,60)"/>
<path d="M0 0 C1.32 0.66 2.64 1.32 4 2 C3.67 2.99 3.34 3.98 3 5 C1.68 4.67 0.36 4.34 -1 4 C-0.67 2.68 -0.34 1.36 0 0 Z " fill="#F2E69A" transform="translate(64,41)"/>
<path d="M0 0 C2.475 0.495 2.475 0.495 5 1 C4.67 2.32 4.34 3.64 4 5 C2.68 4.67 1.36 4.34 0 4 C0 2.68 0 1.36 0 0 Z " fill="#F2E69A" transform="translate(58,38)"/>
<path d="M0 0 C1.98 0 3.96 0 6 0 C6 0.99 6 1.98 6 3 C4.02 3 2.04 3 0 3 C0 2.01 0 1.02 0 0 Z " fill="#C0E3F7" transform="translate(47,68)"/>
<path d="M0 0 C0.33 0.66 0.66 1.32 1 2 C2.32 2 3.64 2 5 2 C5 2.99 5 3.98 5 5 C3.35 5 1.7 5 0 5 C0 3.35 0 1.7 0 0 Z " fill="#C0E4F7" transform="translate(64,62)"/>
<path d="M0 0 C0.99 0.66 1.98 1.32 3 2 C2.67 2.99 2.34 3.98 2 5 C0.68 5 -0.64 5 -2 5 C-1.34 3.35 -0.68 1.7 0 0 Z " fill="#F1E597" transform="translate(39,45)"/>
<path d="M0 0 C0.66 0 1.32 0 2 0 C2.33 1.32 2.66 2.64 3 4 C1.68 4.33 0.36 4.66 -1 5 C-1 1 -1 1 0 0 Z " fill="#F1E594" transform="translate(43,41)"/>
</svg>
